<svg xmlns="http://www.w3.org/2000/svg" viewBox="0 0 902 749"
     width="902" height="749" role="img"
     aria-labelledby="fp-title fp-desc" preserveAspectRatio="xMidYMid meet">
<title id="fp-title">Floorplan of 28 Cromwell Road, Lancaster</title>
<desc id="fp-desc">Three floors drawn to scale. Basement: two cellar rooms with a stair well. Ground floor: porch, hall, lounge with a front bay window, dining room, and a kitchen in the rear back addition. First floor: three bedrooms, a shower room and a landing. Front of the house and Cromwell Road are at the bottom of each plan; the garden is at the top.</desc>
<style>
  .w   { fill: #23201c; }
  .op  { fill: #ffffff; }
  .wl  { fill: none; stroke: #23201c; stroke-width: 1; }
  .gl  { fill: none; stroke: #23201c; stroke-width: 1.1; }
  .wl2 { fill: none; stroke: #23201c; stroke-width: 1.4; stroke-linejoin: round; }
  .bayglass { fill: none; stroke: #ffffff; stroke-width: 11; stroke-linejoin: round; }
  .dr  { fill: none; stroke: #8b8378; stroke-width: 1; }
  .fx  { fill: none; stroke: #8b8378; stroke-width: 1.1; }
  .st  { fill: #ffffff; stroke: #8b8378; stroke-width: 1; }
  .stl { stroke: #8b8378; stroke-width: 1; }
  .ar  { fill: none; stroke: #8b8378; stroke-width: 1.1; }
  .ch  { fill: none; stroke: #8b8378; stroke-width: 1; }
  .rec { fill: #f2e4cb; }
  .kit { fill: #e8d4b4; }
  .bed { fill: #dde7d2; }
  .cel { fill: #e4e2d8; }
  .sh  { fill: #cfe0e6; }
  .circ{ fill: #e6ded1; }
  .rn  { fill: #23201c; font-weight: 600; text-anchor: middle; }
  .rd  { fill: #5c554c; font-size: 10px; text-anchor: middle; }
  .ft  { fill: #23201c; font-size: 16px; font-weight: 600; text-anchor: middle; }
  .or  { fill: #8b8378; font-size: 10px; font-style: italic; text-anchor: middle; }
  .sb  { fill: #5c554c; font-size: 9.5px; text-anchor: middle; }
  text { font-family: "Inter", system-ui, -apple-system, "Segoe UI", Roboto, "Helvetica Neue", Arial, sans-serif; }
</style>
<rect width="100%" height="100%" fill="#fdfcfa"/>
<g id="floor-basement">
<rect class="cel" x="45.0" y="318.68" width="159.28" height="146.08"/>
<rect class="cel" x="45.0" y="469.16" width="213.4" height="180.84"/>
<rect class="circ" x="208.68" y="286.12" width="49.72" height="183.04"/>
<rect class="w" x="34.0" y="307.68" width="181.28" height="11.0"/>
<rect class="w" x="204.28" y="275.12" width="11.0" height="43.56"/>
<rect class="w" x="204.28" y="318.68" width="4.4" height="146.08"/>
<rect class="w" x="197.68" y="275.12" width="71.72" height="11.0"/>
<rect class="w" x="34.0" y="307.68" width="11.0" height="353.32"/>
<rect class="w" x="258.4" y="275.12" width="11.0" height="385.88"/>
<rect class="w" x="34.0" y="650.0" width="235.4" height="11.0"/>
<rect class="w" x="45.0" y="464.76" width="159.28" height="4.4"/>
<rect class="cel" x="204.28" y="410.2" width="4.4" height="39.6"/>
<rect class="cel" x="86.8" y="649.56" width="74.8" height="11.88"/>
<polygon class="w" points="75.8,661.0 102.2,687.4 146.2,687.4 172.6,661.0"/>
<polygon class="cel" points="86.8,661.0 109.68,676.4 138.72,676.4 161.6,661.0"/>
<polyline class="bayglass" points="81.3,661.0 105.94,681.9 142.46,681.9 167.1,661.0"/>
<polyline class="gl" points="81.3,661.0 105.94,681.9 142.46,681.9 167.1,661.0"/>
<polyline class="wl2" points="75.8,661.0 102.2,687.4 146.2,687.4 172.6,661.0"/>
<rect class="ch" x="45.0" y="524.6" width="19.8" height="61.6"/>
<rect class="st" x="211.32" y="304.6" width="44.44" height="101.2"/>
<line class="stl" x1="211.32" y1="315.84" x2="255.76" y2="315.84"/>
<line class="stl" x1="211.32" y1="327.09" x2="255.76" y2="327.09"/>
<line class="stl" x1="211.32" y1="338.33" x2="255.76" y2="338.33"/>
<line class="stl" x1="211.32" y1="349.58" x2="255.76" y2="349.58"/>
<line class="stl" x1="211.32" y1="360.82" x2="255.76" y2="360.82"/>
<line class="stl" x1="211.32" y1="372.07" x2="255.76" y2="372.07"/>
<line class="stl" x1="211.32" y1="383.31" x2="255.76" y2="383.31"/>
<line class="stl" x1="211.32" y1="394.56" x2="255.76" y2="394.56"/>
<line class="ar" x1="233.54" y1="394.8" x2="233.54" y2="315.6"/>
<path class="ar" d="M 227.82 324.4 L 233.54 315.6 L 239.26 324.4"/>
<text class="rn" x="124.64" y="386.0" font-size="12.5">Cellar 2</text>
<text class="rd" x="124.64" y="399.0">3.40m × 3.32m</text>
<text class="rd" x="124.64" y="411.0">(11&#8242;2&#8243; × 10&#8242;11&#8243;)</text>
<text class="rn" x="151.92" y="557.6" font-size="12.5">Cellar</text>
<text class="rd" x="151.92" y="570.6">3.50m × 4.11m</text>
<text class="rd" x="151.92" y="582.6">(11&#8242;6&#8243; × 13&#8242;6&#8243;)</text>
<text class="ft" x="151.7" y="721.4">Basement</text>
</g>
<g id="floor-ground">
<rect class="kit" x="445.84" y="45.0" width="111.76" height="230.12"/>
<rect class="rec" x="344.2" y="286.12" width="159.28" height="163.24"/>
<rect class="rec" x="344.2" y="453.76" width="159.28" height="196.24"/>
<rect class="circ" x="507.88" y="286.12" width="49.72" height="297.88"/>
<rect class="circ" x="507.88" y="588.4" width="49.72" height="61.6"/>
<rect class="w" x="434.84" y="34.0" width="133.76" height="11.0"/>
<rect class="w" x="434.84" y="34.0" width="11.0" height="252.12"/>
<rect class="w" x="557.6" y="34.0" width="11.0" height="252.12"/>
<rect class="w" x="333.2" y="275.12" width="235.4" height="11.0"/>
<rect class="w" x="333.2" y="275.12" width="11.0" height="385.88"/>
<rect class="w" x="557.6" y="275.12" width="11.0" height="385.88"/>
<rect class="w" x="333.2" y="650.0" width="235.4" height="11.0"/>
<rect class="w" x="503.48" y="286.12" width="4.4" height="363.88"/>
<rect class="w" x="344.2" y="449.36" width="159.28" height="4.4"/>
<rect class="w" x="507.88" y="584.0" width="49.72" height="4.4"/>
<rect class="op" x="370.6" y="275.12" width="57.2" height="11.0"/>
<line class="gl" x1="370.6" y1="280.62" x2="427.8" y2="280.62"/>
<rect class="wl" x="370.6" y="275.12" width="57.2" height="11.0"/>
<rect class="op" x="478.4" y="34.0" width="52.8" height="11.0"/>
<line class="gl" x1="478.4" y1="39.5" x2="531.2" y2="39.5"/>
<rect class="wl" x="478.4" y="34.0" width="52.8" height="11.0"/>
<rect class="op" x="434.84" y="71.4" width="11.0" height="39.6"/>
<line class="gl" x1="440.34" y1="71.4" x2="440.34" y2="111.0"/>
<rect class="wl" x="434.84" y="71.4" width="11.0" height="39.6"/>
<rect class="op" x="434.84" y="128.6" width="11.0" height="39.6"/>
<line class="gl" x1="440.34" y1="128.6" x2="440.34" y2="168.2"/>
<rect class="wl" x="434.84" y="128.6" width="11.0" height="39.6"/>
<rect class="op" x="434.84" y="185.8" width="11.0" height="30.8"/>
<line class="gl" x1="440.34" y1="185.8" x2="440.34" y2="216.6"/>
<rect class="wl" x="434.84" y="185.8" width="11.0" height="30.8"/>
<rect class="rec" x="386.0" y="649.56" width="74.8" height="11.88"/>
<polygon class="w" points="375.0,661.0 401.4,687.4 445.4,687.4 471.8,661.0"/>
<polygon class="rec" points="386.0,661.0 408.88,676.4 437.92,676.4 460.8,661.0"/>
<polyline class="bayglass" points="380.5,661.0 405.14,681.9 441.66,681.9 466.3,661.0"/>
<polyline class="gl" points="380.5,661.0 405.14,681.9 441.66,681.9 466.3,661.0"/>
<polyline class="wl2" points="375.0,661.0 401.4,687.4 445.4,687.4 471.8,661.0"/>
<rect class="op" x="434.84" y="234.2" width="11.0" height="33.0"/>
<path class="dr" d="M 445.84 267.2 L 445.84 234.2 A 33.0 33.0 0 0 1 476.85 255.91"/>
<rect class="op" x="465.2" y="275.12" width="35.2" height="11.0"/>
<path class="dr" d="M 465.2 286.12 L 500.4 286.12 A 35.2 35.2 0 0 1 472.52 320.55"/>
<rect class="op" x="518.88" y="275.12" width="38.72" height="11.0"/>
<path class="dr" d="M 518.88 286.12 L 557.6 286.12 A 38.72 38.72 0 0 1 530.85 322.94"/>
<rect class="op" x="503.48" y="405.8" width="4.4" height="35.2"/>
<path class="dr" d="M 503.48 405.8 L 503.48 441.0 A 35.2 35.2 0 0 1 468.41 408.87"/>
<rect class="op" x="503.48" y="498.2" width="4.4" height="35.2"/>
<path class="dr" d="M 503.48 533.4 L 503.48 498.2 A 35.2 35.2 0 0 0 468.41 530.33"/>
<rect class="op" x="518.0" y="584.0" width="35.2" height="4.4"/>
<path class="dr" d="M 518.0 584.0 L 553.2 584.0 A 35.2 35.2 0 0 0 527.11 550.0"/>
<rect class="op" x="515.8" y="650.0" width="33.0" height="11.0"/>
<path class="dr" d="M 515.8 650.0 L 548.8 650.0 A 33.0 33.0 0 0 0 526.0 618.62"/>
<rect class="fx" x="445.84" y="45.0" width="111.76" height="26.4"/>
<rect class="fx" x="531.2" y="71.4" width="26.4" height="81.4"/>
<rect class="fx" x="485.0" y="49.84" width="27.28" height="18.48" rx="3"/>
<circle class="fx" cx="541.76" cy="89.0" r="4.4"/>
<circle class="fx" cx="541.76" cy="103.96" r="4.4"/>
<circle class="fx" cx="556.72" cy="89.0" r="4.4"/>
<circle class="fx" cx="556.72" cy="103.96" r="4.4"/>
<rect class="st" x="510.52" y="328.8" width="44.44" height="118.8"/>
<line class="stl" x1="510.52" y1="340.68" x2="554.96" y2="340.68"/>
<line class="stl" x1="510.52" y1="352.56" x2="554.96" y2="352.56"/>
<line class="stl" x1="510.52" y1="364.44" x2="554.96" y2="364.44"/>
<line class="stl" x1="510.52" y1="376.32" x2="554.96" y2="376.32"/>
<line class="stl" x1="510.52" y1="388.2" x2="554.96" y2="388.2"/>
<line class="stl" x1="510.52" y1="400.08" x2="554.96" y2="400.08"/>
<line class="stl" x1="510.52" y1="411.96" x2="554.96" y2="411.96"/>
<line class="stl" x1="510.52" y1="423.84" x2="554.96" y2="423.84"/>
<line class="stl" x1="510.52" y1="435.72" x2="554.96" y2="435.72"/>
<line class="ar" x1="532.74" y1="436.6" x2="532.74" y2="339.8"/>
<path class="ar" d="M 527.02 348.6 L 532.74 339.8 L 538.46 348.6"/>
<text class="rn" x="501.72" y="181.4" font-size="12.5">Kitchen</text>
<text class="rd" x="501.72" y="194.4">5.23m × 2.54m</text>
<text class="rd" x="501.72" y="206.4">(17&#8242;2&#8243; × 8&#8242;4&#8243;)</text>
<text class="rn" x="423.84" y="359.6" font-size="12.5">Dining Room</text>
<text class="rd" x="423.84" y="372.6">3.71m × 3.49m</text>
<text class="rd" x="423.84" y="384.6">(12&#8242;2&#8243; × 11&#8242;5&#8243;)</text>
<text class="rn" x="423.84" y="544.4" font-size="12.5">Lounge</text>
<text class="rd" x="423.84" y="557.4">4.46m × 3.62m</text>
<text class="rd" x="423.84" y="569.4">(14&#8242;8&#8243; × 11&#8242;11&#8243;)</text>
<text class="rn" x="532.52" y="515.8" font-size="11.0">Hall</text>
<text class="rn" x="532.52" y="625.8" font-size="11.0">Porch</text>
<rect class="ch" x="344.2" y="335.4" width="19.8" height="61.6"/>
<rect class="ch" x="344.2" y="524.6" width="19.8" height="61.6"/>
<text class="or" x="383.8" y="25.0">Garden</text>
<text class="or" x="450.68" y="702.4">Cromwell Road</text>
<text class="ft" x="450.9" y="721.4">Ground Floor</text>
</g>
<g id="floor-first">
<rect class="bed" x="745.04" y="45.0" width="111.76" height="121.44"/>
<rect class="sh" x="745.04" y="170.84" width="66.88" height="104.28"/>
<rect class="circ" x="816.32" y="170.84" width="40.48" height="104.28"/>
<rect class="circ" x="774.96" y="286.12" width="81.84" height="153.12"/>
<rect class="circ" x="816.32" y="275.12" width="40.48" height="11.0"/>
<rect class="bed" x="643.4" y="286.12" width="127.16" height="153.12"/>
<rect class="bed" x="643.4" y="443.64" width="213.4" height="206.36"/>
<rect class="w" x="734.04" y="34.0" width="133.76" height="11.0"/>
<rect class="w" x="734.04" y="34.0" width="11.0" height="252.12"/>
<rect class="w" x="856.8" y="34.0" width="11.0" height="252.12"/>
<rect class="w" x="632.4" y="275.12" width="235.4" height="11.0"/>
<rect class="w" x="632.4" y="275.12" width="11.0" height="385.88"/>
<rect class="w" x="856.8" y="275.12" width="11.0" height="385.88"/>
<rect class="w" x="632.4" y="650.0" width="235.4" height="11.0"/>
<rect class="circ" x="816.32" y="274.68" width="40.48" height="11.88"/>
<rect class="w" x="745.04" y="166.44" width="111.76" height="4.4"/>
<rect class="w" x="811.92" y="170.84" width="4.4" height="104.28"/>
<rect class="w" x="770.56" y="286.12" width="4.4" height="153.12"/>
<rect class="w" x="643.4" y="439.24" width="213.4" height="4.4"/>
<rect class="op" x="777.6" y="34.0" width="52.8" height="11.0"/>
<line class="gl" x1="777.6" y1="39.5" x2="830.4" y2="39.5"/>
<rect class="wl" x="777.6" y="34.0" width="52.8" height="11.0"/>
<rect class="op" x="734.04" y="194.6" width="11.0" height="35.2"/>
<line class="gl" x1="739.54" y1="194.6" x2="739.54" y2="229.8"/>
<rect class="wl" x="734.04" y="194.6" width="11.0" height="35.2"/>
<rect class="op" x="669.8" y="275.12" width="57.2" height="11.0"/>
<line class="gl" x1="669.8" y1="280.62" x2="727.0" y2="280.62"/>
<rect class="wl" x="669.8" y="275.12" width="57.2" height="11.0"/>
<rect class="op" x="700.6" y="650.0" width="83.6" height="11.0"/>
<line class="gl" x1="700.6" y1="655.5" x2="784.2" y2="655.5"/>
<rect class="wl" x="700.6" y="650.0" width="83.6" height="11.0"/>
<rect class="op" x="817.2" y="166.44" width="35.2" height="4.4"/>
<path class="dr" d="M 817.2 166.44 L 852.4 166.44 A 35.2 35.2 0 0 0 826.31 132.44"/>
<rect class="op" x="811.92" y="181.4" width="4.4" height="30.8"/>
<path class="dr" d="M 811.92 181.4 L 811.92 212.2 A 30.8 30.8 0 0 1 781.59 186.75"/>
<rect class="op" x="770.56" y="353.0" width="4.4" height="33.0"/>
<path class="dr" d="M 770.56 353.0 L 770.56 386.0 A 33.0 33.0 0 0 1 737.88 357.59"/>
<rect class="op" x="810.6" y="439.24" width="35.2" height="4.4"/>
<path class="dr" d="M 810.6 443.64 L 845.8 443.64 A 35.2 35.2 0 0 1 819.71 477.64"/>
<ellipse class="fx" cx="784.2" cy="188.0" rx="10.56" ry="13.2"/>
<rect class="fx" x="745.04" y="203.4" width="22.88" height="27.28" rx="3"/>
<rect class="fx" x="745.04" y="235.52" width="39.6" height="39.6"/>
<path class="fx" d="M 784.64 235.52 A 39.6 39.6 0 0 1 745.04 275.12"/>
<rect class="st" x="818.96" y="295.8" width="35.2" height="105.6"/>
<line class="stl" x1="818.96" y1="307.53" x2="854.16" y2="307.53"/>
<line class="stl" x1="818.96" y1="319.27" x2="854.16" y2="319.27"/>
<line class="stl" x1="818.96" y1="331.0" x2="854.16" y2="331.0"/>
<line class="stl" x1="818.96" y1="342.73" x2="854.16" y2="342.73"/>
<line class="stl" x1="818.96" y1="354.47" x2="854.16" y2="354.47"/>
<line class="stl" x1="818.96" y1="366.2" x2="854.16" y2="366.2"/>
<line class="stl" x1="818.96" y1="377.93" x2="854.16" y2="377.93"/>
<line class="stl" x1="818.96" y1="389.67" x2="854.16" y2="389.67"/>
<line class="ar" x1="836.56" y1="306.8" x2="836.56" y2="390.4"/>
<path class="ar" d="M 830.84 381.6 L 836.56 390.4 L 842.28 381.6"/>
<text class="rn" x="800.92" y="97.8" font-size="12.5">Bedroom 3</text>
<text class="rd" x="800.92" y="110.8">2.76m × 2.61m</text>
<text class="rd" x="800.92" y="122.8">(9&#8242;1&#8243; × 8&#8242;7&#8243;)</text>
<text class="rn" x="788.6" y="218.8" font-size="11">Shower</text>
<text class="rn" x="788.6" y="231.8" font-size="11">Room</text>
<text class="rn" x="815.88" y="322.2" font-size="11.0">Landing</text>
<text class="rn" x="705.0" y="339.8" font-size="12.5">Bedroom 2</text>
<text class="rd" x="705.0" y="352.8">3.45m × 2.89m</text>
<text class="rd" x="705.0" y="364.8">(11&#8242;4&#8243; × 9&#8242;6&#8243;)</text>
<text class="rn" x="750.32" y="542.2" font-size="12.5">Bedroom 1</text>
<text class="rd" x="750.32" y="555.2">3.66m × 4.69m</text>
<text class="rd" x="750.32" y="567.2">(12&#8242; × 15&#8242;5&#8243;)</text>
<rect class="ch" x="643.4" y="524.6" width="19.8" height="61.6"/>
<text class="ft" x="750.1" y="721.4">First Floor</text>
</g>
<g id="scalebar">
<rect class="w" x="34.0" y="700.6" width="44.0" height="6"/>
<rect class="op" x="78.0" y="700.6" width="44.0" height="6"/>
<rect class="w" x="122.0" y="700.6" width="44.0" height="6"/>
<rect class="op" x="166.0" y="700.6" width="44.0" height="6"/>
<rect class="w" x="210.0" y="700.6" width="44.0" height="6"/>
<rect class="wl" x="34.0" y="700.6" width="220.0" height="6"/>
<text class="sb" x="34.0" y="718.6">0</text>
<text class="sb" x="254.0" y="718.6">5m</text>
</g>
</svg>
